<svg xmlns="http://www.w3.org/2000/svg" xmlns:xlink="http://www.w3.org/1999/xlink" viewBox="0 0 512 512" width="512" height="512" preserveAspectRatio="xMidYMid meet" style="width: 100%; height: 100%; transform: translate3d(0px, 0px, 0px); content-visibility: visible;"><defs><clipPath id="__lottie_element_2"><rect width="512" height="512" x="0" y="0"></rect></clipPath></defs><g clip-path="url(#__lottie_element_2)"><g transform="matrix(1,0,0,1,356,142.5)" opacity="1" style="display: block;"><g opacity="1" transform="matrix(1,0,0,1,0,0)"><path stroke-linecap="round" stroke-linejoin="miter" fill-opacity="0" stroke-miterlimit="4" stroke="rgb(0,0,0)" stroke-opacity="1" stroke-width="10" d=" M37,33.5 C24.53700065612793,-13.793999671936035 -17.525999069213867,-30.87299919128418 -37,-33.5"></path></g></g><g transform="matrix(1,0,0,1,148.5,333)" opacity="1" style="display: block;"><g opacity="1" transform="matrix(1,0,0,1,0,0)"><path stroke-linecap="round" stroke-linejoin="miter" fill-opacity="0" stroke-miterlimit="4" stroke="rgb(0,0,0)" stroke-opacity="1" stroke-width="10" d=" M-23.16699981689453,-44 C-27.19099998474121,4.565999984741211 6.26800012588501,34.90299987792969 23.5,44"></path></g></g><g transform="matrix(1,0,0,1,372,119)" opacity="1" style="display: block;"><g opacity="1" transform="matrix(1,0,0,1,0,0)"><path stroke-linecap="round" stroke-linejoin="miter" fill-opacity="0" stroke-miterlimit="4" stroke="rgb(0,0,0)" stroke-opacity="1" stroke-width="10" d=" M37,33 C24.53700065612793,-13.588000297546387 -17.525999069213867,-30.41200065612793 -37,-33"></path></g></g><g transform="matrix(1,0,0,1,110,350)" opacity="1" style="display: block;"><g opacity="1" transform="matrix(1,0,0,1,0,0)"><path stroke-linecap="round" stroke-linejoin="miter" fill-opacity="0" stroke-miterlimit="4" stroke="rgb(0,0,0)" stroke-opacity="1" stroke-width="10" d=" M-23.65999984741211,-44 C-27.770000457763672,4.565999984741211 6.401000022888184,34.90299987792969 24,44"></path></g></g><g transform="matrix(1,0,0,1,268.4320068359375,235.64300537109375)" opacity="1" style="display: block;"><g opacity="1" transform="matrix(1,0,0,1,0,0)"><path fill="rgb(255,223,202)" fill-opacity="1" d=" M-115.41600036621094,-32.00699996948242 C-128.3209991455078,-23.166000366210938 -119.4729995727539,-10.267999649047852 -119.4729995727539,-10.267999649047852 C-119.4729995727539,-10.267999649047852 -48.73899841308594,92.88899993896484 -48.73899841308594,92.88899993896484 C-19.441999435424805,135.60000610351562 38.957000732421875,146.48800659179688 81.67500305175781,117.1989974975586 C120.83699798583984,90.33300018310547 133.24200439453125,39.03900146484375 112.4729995727539,-2.2330000400543213 C105.11699676513672,-16.850000381469727 99.56099700927734,-32.30400085449219 94.33899688720703,-47.8120002746582 C94.33899688720703,-47.8120002746582 81.16699981689453,-86.927001953125 81.16699981689453,-86.927001953125 C81.16699981689453,-86.927001953125 76.89900207519531,-101.96600341796875 61.86000061035156,-97.70600128173828 C46.827999114990234,-93.43800354003906 51.0890007019043,-78.39900207519531 51.0890007019043,-78.39900207519531 C51.0890007019043,-78.39900207519531 62.49300003051758,-21.320999145507812 62.49300003051758,-21.320999145507812 C23.808000564575195,5.201000213623047 15.710000038146973,48.66999816894531 42.231998443603516,87.3550033569336 C42.231998443603516,87.3550033569336 35.78300094604492,91.77200317382812 31.367000579833984,85.322998046875 C9.269000053405762,53.095001220703125 12.951000213623047,3.184000015258789 51.62799835205078,-23.34600067138672 C51.62799835205078,-23.34600067138672 42.29499816894531,-36.96200180053711 42.29499816894531,-36.96200180053711 C42.29499816894531,-36.96200180053711 -19.097999572753906,-126.49500274658203 -19.097999572753906,-126.49500274658203 C-19.097999572753906,-126.49500274658203 -27.937999725341797,-139.38499450683594 -40.827999114990234,-130.54400634765625 C-53.71799850463867,-121.7030029296875 -44.87799835205078,-108.81400299072266 -44.87799835205078,-108.81400299072266 C-44.87799835205078,-108.81400299072266 13.1850004196167,-24.14299964904785 13.1850004196167,-24.14299964904785 C10.918000221252441,-22.861000061035156 8.659000396728516,-21.64900016784668 6.376999855041504,-20.25 C6.376999855041504,-20.25 -55.74300003051758,-110.83799743652344 -55.74300003051758,-110.83799743652344 C-55.74300003051758,-110.83799743652344 -64.58300018310547,-123.72799682617188 -77.4729995727539,-114.88700103759766 C-90.37100219726562,-106.0459976196289 -81.52999877929688,-93.15699768066406 -81.52999877929688,-93.15699768066406 C-81.52999877929688,-93.15699768066406 -19.410999298095703,-2.552999973297119 -19.410999298095703,-2.552999973297119 C-21.513999938964844,-0.9509999752044678 -23.554000854492188,0.6830000281333923 -25.547000885009766,2.309000015258789 C-25.547000885009766,2.309000015258789 -79.13099670410156,-75.83499908447266 -79.13099670410156,-75.83499908447266 C-79.13099670410156,-75.83499908447266 -87.97100067138672,-88.7249984741211 -100.86100006103516,-79.88400268554688 C-113.75900268554688,-71.04299926757812 -104.91799926757812,-58.15399932861328 -104.91799926757812,-58.15399932861328 C-104.91799926757812,-58.15399932861328 -47.95000076293945,24.915000915527344 -47.95000076293945,24.915000915527344 C-49.676998138427734,27.21299934387207 -51.224998474121094,29.54199981689453 -52.63999938964844,31.902999877929688 C-52.63999938964844,31.902999877929688 -93.68499755859375,-27.95800018310547 -93.68499755859375,-27.95800018310547 C-93.68499755859375,-27.95800018310547 -102.5260009765625,-40.847999572753906 -115.41600036621094,-32.00699996948242z"></path></g></g></g></svg>
